<?xml version="1.0" encoding="utf-8"?>
<!-- Generator: Adobe Illustrator 23.0.0, SVG Export Plug-In . SVG Version: 6.00 Build 0)  -->
<svg version="1.1" id="Capa_1" xmlns="http://www.w3.org/2000/svg" xmlns:xlink="http://www.w3.org/1999/xlink" x="0px" y="0px"
	 viewBox="0 0 1920 1080" style="enable-background:new 0 0 1920 1080;" xml:space="preserve">
<style type="text/css">
	.st0{fill-rule:evenodd;clip-rule:evenodd;fill:#DDE0E4;}
</style>
<g>
	<path class="st0" d="M1191.1,732.2c-111.2,82.2-272.8,126-412.3,126c-195.4,0-370.5-72.1-503.9-192c-10.1-9.4-1.3-22.2,11.5-14.8
		C429.8,734.9,607,784.8,790.2,784.8c123.3,0,259.4-25.6,384.7-78.8C1193.8,698.6,1209.3,718.8,1191.1,732.2L1191.1,732.2z"/>
	<path class="st0" d="M1237.6,679c-14.1-18.2-94.3-8.8-130-4c-10.8,1.3-12.8-8.1-2.7-14.8c64-45.1,168.4-31.7,180.5-16.8
		c12.1,14.8-3.4,119.9-63.3,169.8c-9.4,7.4-18.2,3.4-14.1-6.7C1221.4,772.7,1251.7,697.9,1237.6,679z"/>
	<path class="st0" d="M1109.6,343.5v-43.8c0-6.7,4.7-10.8,10.8-10.8h195.4c6.1,0,11.5,4.7,11.5,10.8v37.1c0,6.1-5.4,14.1-14.8,27.6
		l-101.1,144.2c37.7-0.7,77.5,4.7,111.2,23.6c7.4,4,9.4,10.8,10.1,16.8v46.5c0,6.7-6.7,14.1-14.1,10.1c-60-31.7-140.1-35-206.1,0.7
		c-6.7,3.4-14.1-3.4-14.1-10.1v-44.5c0-6.7,0-18.9,7.4-29.6l117.2-167.7H1121C1114.9,354.3,1109.6,349.6,1109.6,343.5L1109.6,343.5z
		 M397.5,615h-59.3c-5.4-0.7-10.1-4.7-10.8-10.1V300.4c0-6.1,5.4-10.8,11.5-10.8h55.2c6.1,0,10.1,4.7,10.8,10.1v39.7h1.3
		c14.1-38.4,41.8-56.6,78.1-56.6c37.1,0,60.6,18.2,76.8,56.6c14.1-38.4,47.2-56.6,82.2-56.6c24.9,0,51.9,10.1,68.7,33.7
		c18.9,25.6,14.8,62.7,14.8,95.7v192.7c0,6.1-5.4,10.8-11.5,10.8h-58.6c-6.1-0.7-10.8-5.4-10.8-10.8V443.2c0-12.8,1.3-45.1-1.3-57.3
		c-4.7-20.2-17.5-26.3-35-26.3c-14.1,0-29.6,9.4-35.7,24.9c-6.1,15.5-5.4,41.1-5.4,58.6v161.7c0,6.1-5.4,10.8-11.5,10.8h-59.3
		c-6.1-0.7-10.8-5.4-10.8-10.8V443.2c0-33.7,5.4-84.2-36.4-84.2c-42.4,0-41.1,48.5-41.1,84.2v161.7C408.9,610.3,404.2,615,397.5,615
		L397.5,615z M1495.6,282.9c88.3,0,136.1,75.5,136.1,171.8c0,93-52.5,167.1-136.1,167.1c-86.2,0-133.4-75.5-133.4-169.8
		C1361.5,357,1409.3,282.9,1495.6,282.9L1495.6,282.9z M1495.6,345.5c-43.8,0-46.5,60-46.5,97s-0.7,116.5,45.8,116.5
		c45.8,0,48.5-64,48.5-103.1c0-25.6-1.3-56.6-8.8-80.8C1527.9,353.6,1514.4,345.5,1495.6,345.5L1495.6,345.5z M1745.5,615h-59.3
		c-6.1-0.7-10.8-5.4-10.8-10.8V299.1c0.7-5.4,5.4-10.1,11.5-10.1h55.2c5.4,0,9.4,4,10.8,8.8v46.5h1.3c16.8-41.8,39.7-61.3,80.8-61.3
		c26.3,0,52.5,9.4,69.4,35.7c15.5,24.3,15.5,65.3,15.5,95v192c-0.7,5.4-5.4,9.4-11.5,9.4h-59.3c-5.4-0.7-10.1-4.7-10.8-9.4V439.9
		c0-33.7,4-82.2-37.1-82.2c-14.1,0-27.6,9.4-34.4,24.3c-8.1,18.9-9.4,37.1-9.4,57.9v164.4C1757,610.3,1751.6,615,1745.5,615
		L1745.5,615z M953.9,469.5c0,22.9,0.7,42.4-10.8,63.3c-9.4,16.8-24.3,26.9-41.1,26.9c-22.9,0-36.4-17.5-36.4-43.1
		c0-50.5,45.1-60,88.3-60V469.5z M1013.9,614.3c-4,3.4-9.4,4-14.1,1.3c-19.5-16.2-23.6-24.3-34.4-39.7c-32.3,33-55.9,43.1-97.7,43.1
		c-49.9,0-88.9-31-88.9-92.3c0-48.5,26.3-80.8,63.3-97c32.3-14.1,77.5-16.8,111.8-20.9v-7.4c0-14.1,1.3-31-7.4-43.1
		c-7.4-10.8-20.9-15.5-33-15.5c-22.9,0-43.1,11.5-47.8,35.7c-1.3,5.4-4.7,10.8-10.1,10.8l-57.3-6.1c-4.7-1.3-10.1-4.7-8.8-12.1
		c13.5-70.1,76.1-90.9,132.7-90.9c29,0,66.7,7.4,89.6,29.6c29,26.9,26.3,63.3,26.3,102.4v92.3c0,27.6,11.5,39.7,22.2,55.2
		c4,5.4,4.7,12.1,0,15.5C1047.6,585.4,1026,604.2,1013.9,614.3L1013.9,614.3z M175.8,469.5c0,22.9,0.7,42.4-10.8,63.3
		c-9.4,16.8-24.3,26.9-41.1,26.9c-22.9,0-36.4-17.5-36.4-43.1c0-50.5,45.1-60,88.3-60V469.5z M235.1,614.3c-4,3.4-9.4,4-14.1,1.3
		c-19.5-16.2-23.6-24.3-34.4-39.7c-32.3,33-55.9,43.1-97.7,43.1c-49.9,0-88.9-31-88.9-92.3c0-48.5,26.3-80.8,63.3-97
		c32.3-14.1,77.5-16.8,111.8-20.9v-7.4c0-14.1,1.3-31-7.4-43.1c-7.4-10.8-20.9-15.5-33-15.5c-22.9,0-43.1,11.5-47.8,35.7
		c-1.3,5.4-4.7,10.8-10.1,10.8l-57.3-6.1c-4.7-1.3-10.1-4.7-8.8-12.1c13.5-70.1,76.1-90.9,132.7-90.9c29,0,66.7,7.4,89.6,29.6
		c29,26.9,26.3,63.3,26.3,102.4v92.3c0,27.6,11.5,39.7,22.2,55.2c4,5.4,4.7,12.1,0,15.5C268.8,585.4,247.2,604.2,235.1,614.3
		L235.1,614.3z"/>
</g>
</svg>
