<svg xmlns="http://www.w3.org/2000/svg" width="13.234" height="12.637" viewBox="0 0 13.234 12.637">
  <g id="star-icon" transform="translate(-955.383 -4141.968)">
    <g id="ant-design:star-filled" transform="translate(954 4140.901)">
      <path id="Vector" d="M12.806,4.45,8.839,3.873,7.065.278a.5.5,0,0,0-.9,0l-1.773,3.6L.428,4.45A.5.5,0,0,0,.151,5.3l2.87,2.8-.678,3.952a.5.5,0,0,0,.725.527l3.548-1.866,3.548,1.866a.5.5,0,0,0,.725-.527L10.212,8.1l2.87-2.8a.5.5,0,0,0-.277-.853Z" transform="translate(1.383 1.067)" fill="#fea250"/>
    </g>
  </g>
</svg>
